<svg width="242" height="59" viewBox="0 0 242 59" fill="none" xmlns="http://www.w3.org/2000/svg">
<path d="M42.0039 38.0637V33.0456L34.1186 37.4903V33.0456L25.4048 37.5821V26.8031C25.7109 26.7786 25.9537 26.5235 25.9537 26.2113C25.9537 25.8807 25.6864 25.6134 25.3558 25.6134H19.4296C19.101 25.6134 18.8317 25.8807 18.8317 26.2113C18.8317 26.5235 19.0745 26.7786 19.3806 26.8031V47.8142H24.415H25.4027H49.2688V33.0456L42.0039 38.0637ZM30.3596 43.2573H27.4271V40.3248H30.3596V43.2573ZM38.6122 43.2573H35.6798V40.3248H38.6122V43.2573ZM47.024 43.2573H44.0915V40.3248H47.024V43.2573Z" fill="#55BED2"/>
<path d="M30.3595 22.1014C34.247 22.4197 34.8837 19.4893 34.8837 19.4893C33.2899 21.3994 31.0594 20.6341 27.427 20.6994C23.7945 20.7627 22.3293 22.3565 22.3293 23.6952C23.0292 22.3565 26.4719 21.783 30.3595 22.1014Z" fill="#55BED2"/>
<path d="M61.6845 30.9703C61.2315 29.6398 60.6927 28.3664 60.0989 27.1216L62.7885 21.828L57.4664 16.5058L52.1442 11.1836L46.8506 13.9019C45.6343 13.2794 44.3303 12.7407 43.0283 12.3162L41.1876 6.65326H26.1578L24.3171 12.3162C22.9865 12.7407 21.7131 13.2794 20.4683 13.9019L15.1747 11.1836L9.85254 16.5058L4.52833 21.828L7.2486 27.1216C6.62414 28.3664 6.08743 29.6398 5.63236 30.9703L0 32.8111V47.8409L5.63236 49.6836C5.9405 50.5856 6.28742 51.4631 6.67516 52.3141H10.175V52.3468H57.1725V52.3141H60.6539C61.0315 51.4631 61.3784 50.5856 61.6865 49.6836L67.3475 47.8409V32.8111L61.6845 30.9703ZM55.6134 49.5428H11.7096C10.5137 46.7062 9.85254 43.588 9.85254 40.3127C9.85254 27.1787 20.5234 16.5058 33.6594 16.5058C46.822 16.5058 57.4664 27.1787 57.4664 40.3127C57.4664 43.588 56.8072 46.7062 55.6134 49.5428Z" fill="#55BED2"/>
<path d="M23.0783 23.8852C24.6721 23.0097 27.172 22.9771 30.2167 23.2158C33.2594 23.4546 33.6737 22.0853 33.6737 22.0853C32.8288 22.9138 31.3636 22.7056 29.2453 22.6118C24.7986 22.4363 23.0783 23.8852 23.0783 23.8852Z" fill="#55BED2"/>
<path d="M86.3755 42.185C85.7835 42.185 85.1051 42.1233 84.3405 42C83.5758 41.9013 82.8358 41.6547 82.1205 41.26C81.4298 40.8653 80.8501 40.2733 80.3815 39.484C79.9375 38.67 79.7155 37.56 79.7155 36.154V20.873C79.7155 19.6643 79.9005 18.653 80.2705 17.839C80.6405 17.025 81.1338 16.3837 81.7505 15.915C82.3671 15.4463 83.0455 15.1133 83.7855 14.916C84.5255 14.7187 85.2531 14.62 85.9685 14.62C87.8185 14.62 89.4465 14.6447 90.8525 14.694C92.2831 14.7433 93.5658 14.805 94.7005 14.879C95.8351 14.9283 96.8711 15.0023 97.8085 15.101V19.689H87.5965C86.8318 19.689 86.2398 19.874 85.8205 20.244C85.4011 20.614 85.1915 21.1813 85.1915 21.946V25.905L96.0325 26.201V30.53L85.1915 30.826V34.6C85.1915 35.2413 85.2901 35.747 85.4875 36.117C85.7095 36.4623 85.9931 36.709 86.3385 36.857C86.7085 36.9803 87.0908 37.042 87.4855 37.042H97.8085V41.63C96.7231 41.7533 95.5145 41.852 94.1825 41.926C92.8751 42 91.5431 42.0617 90.1865 42.111C88.8545 42.1603 87.5841 42.185 86.3755 42.185ZM109.267 42.222C108.058 42.222 106.936 42.0617 105.9 41.741C104.888 41.4203 104.013 40.89 103.273 40.15C102.533 39.3853 101.953 38.3617 101.534 37.079C101.139 35.7717 100.942 34.1313 100.942 32.158C100.942 30.1353 101.127 28.458 101.497 27.126C101.867 25.794 102.409 24.7457 103.125 23.981C103.865 23.1917 104.765 22.6367 105.826 22.316C106.886 21.9953 108.083 21.835 109.415 21.835C110.623 21.835 111.77 21.909 112.856 22.057C113.966 22.1803 115.125 22.4147 116.334 22.76V25.905H111.117C109.982 25.905 109.069 26.0777 108.379 26.423C107.688 26.7437 107.182 27.3603 106.862 28.273C106.566 29.161 106.418 30.4437 106.418 32.121C106.418 33.7737 106.566 35.0317 106.862 35.895C107.182 36.7583 107.688 37.338 108.379 37.634C109.094 37.93 110.031 38.078 111.191 38.078H116.63V41.186C116.013 41.3833 115.298 41.5683 114.484 41.741C113.67 41.889 112.806 42 111.894 42.074C111.006 42.1727 110.13 42.222 109.267 42.222ZM128.182 42.185C126.554 42.185 125.161 42.0247 124.001 41.704C122.842 41.3587 121.892 40.7913 121.152 40.002C120.437 39.2127 119.907 38.1643 119.561 36.857C119.241 35.5497 119.08 33.934 119.08 32.01C119.08 29.9873 119.241 28.3223 119.561 27.015C119.907 25.683 120.437 24.647 121.152 23.907C121.892 23.1423 122.842 22.612 124.001 22.316C125.185 21.9953 126.579 21.835 128.182 21.835C129.835 21.835 131.241 21.9953 132.4 22.316C133.56 22.6367 134.497 23.1793 135.212 23.944C135.952 24.684 136.483 25.72 136.803 27.052C137.149 28.3593 137.321 30.012 137.321 32.01C137.321 33.9833 137.161 35.636 136.84 36.968C136.52 38.2753 136.002 39.3113 135.286 40.076C134.571 40.8407 133.621 41.3833 132.437 41.704C131.278 42.0247 129.86 42.185 128.182 42.185ZM128.182 37.819C128.848 37.819 129.403 37.7573 129.847 37.634C130.316 37.5107 130.686 37.264 130.957 36.894C131.253 36.4993 131.475 35.9073 131.623 35.118C131.771 34.3287 131.845 33.2927 131.845 32.01C131.845 30.7027 131.771 29.6667 131.623 28.902C131.475 28.1127 131.253 27.533 130.957 27.163C130.686 26.7683 130.316 26.5093 129.847 26.386C129.403 26.2627 128.848 26.201 128.182 26.201C127.541 26.201 126.986 26.2627 126.517 26.386C126.073 26.5093 125.703 26.7683 125.407 27.163C125.111 27.533 124.889 28.1127 124.741 28.902C124.618 29.6667 124.556 30.7027 124.556 32.01C124.556 33.2927 124.618 34.3287 124.741 35.118C124.889 35.9073 125.111 36.4993 125.407 36.894C125.703 37.264 126.073 37.5107 126.517 37.634C126.986 37.7573 127.541 37.819 128.182 37.819ZM145.227 42L138.567 22.131H144.228L148.52 36.931L152.923 22.131H158.51L151.554 42H145.227ZM161.783 19.208C161.265 19.208 161.006 18.9613 161.006 18.468V14.842C161.006 14.324 161.265 14.065 161.783 14.065H166.001C166.223 14.065 166.395 14.139 166.519 14.287C166.642 14.435 166.704 14.62 166.704 14.842V18.468C166.704 18.9613 166.469 19.208 166.001 19.208H161.783ZM161.117 42V22.131H166.593V42H161.117ZM178.015 42.222C177.399 42.222 176.733 42.1973 176.017 42.148C175.302 42.1233 174.587 42.074 173.871 42C173.156 41.926 172.49 41.8397 171.873 41.741C171.257 41.6177 170.739 41.482 170.319 41.334V38.115H179.125C179.643 38.115 180.063 38.078 180.383 38.004C180.729 37.9053 180.975 37.745 181.123 37.523C181.296 37.2763 181.382 36.931 181.382 36.487V35.858C181.382 35.3647 181.222 34.9823 180.901 34.711C180.581 34.4397 179.989 34.304 179.125 34.304H176.017C174.883 34.304 173.859 34.1313 172.946 33.786C172.034 33.4407 171.306 32.8733 170.763 32.084C170.245 31.2947 169.986 30.234 169.986 28.902V27.755C169.986 26.497 170.233 25.4363 170.726 24.573C171.22 23.7097 172.046 23.056 173.205 22.612C174.365 22.168 175.956 21.946 177.978 21.946C178.792 21.946 179.656 21.9953 180.568 22.094C181.506 22.168 182.381 22.279 183.195 22.427C184.034 22.5503 184.7 22.6983 185.193 22.871V26.09H176.868C176.153 26.09 175.61 26.2133 175.24 26.46C174.87 26.682 174.685 27.1137 174.685 27.755V28.347C174.685 28.791 174.772 29.124 174.944 29.346C175.117 29.5433 175.376 29.6913 175.721 29.79C176.091 29.864 176.548 29.901 177.09 29.901H180.272C182.295 29.901 183.763 30.3697 184.675 31.307C185.613 32.2197 186.081 33.49 186.081 35.118V36.894C186.081 38.226 185.761 39.2867 185.119 40.076C184.503 40.8407 183.59 41.3957 182.381 41.741C181.197 42.0617 179.742 42.222 178.015 42.222ZM190.147 19.208C189.629 19.208 189.37 18.9613 189.37 18.468V14.842C189.37 14.324 189.629 14.065 190.147 14.065H194.365C194.587 14.065 194.76 14.139 194.883 14.287C195.006 14.435 195.068 14.62 195.068 14.842V18.468C195.068 18.9613 194.834 19.208 194.365 19.208H190.147ZM189.481 42V22.131H194.957V42H189.481ZM207.674 42.185C206.046 42.185 204.653 42.0247 203.493 41.704C202.334 41.3587 201.384 40.7913 200.644 40.002C199.929 39.2127 199.399 38.1643 199.053 36.857C198.733 35.5497 198.572 33.934 198.572 32.01C198.572 29.9873 198.733 28.3223 199.053 27.015C199.399 25.683 199.929 24.647 200.644 23.907C201.384 23.1423 202.334 22.612 203.493 22.316C204.677 21.9953 206.071 21.835 207.674 21.835C209.327 21.835 210.733 21.9953 211.892 22.316C213.052 22.6367 213.989 23.1793 214.704 23.944C215.444 24.684 215.975 25.72 216.295 27.052C216.641 28.3593 216.813 30.012 216.813 32.01C216.813 33.9833 216.653 35.636 216.332 36.968C216.012 38.2753 215.494 39.3113 214.778 40.076C214.063 40.8407 213.113 41.3833 211.929 41.704C210.77 42.0247 209.352 42.185 207.674 42.185ZM207.674 37.819C208.34 37.819 208.895 37.7573 209.339 37.634C209.808 37.5107 210.178 37.264 210.449 36.894C210.745 36.4993 210.967 35.9073 211.115 35.118C211.263 34.3287 211.337 33.2927 211.337 32.01C211.337 30.7027 211.263 29.6667 211.115 28.902C210.967 28.1127 210.745 27.533 210.449 27.163C210.178 26.7683 209.808 26.5093 209.339 26.386C208.895 26.2627 208.34 26.201 207.674 26.201C207.033 26.201 206.478 26.2627 206.009 26.386C205.565 26.5093 205.195 26.7683 204.899 27.163C204.603 27.533 204.381 28.1127 204.233 28.902C204.11 29.6667 204.048 30.7027 204.048 32.01C204.048 33.2927 204.11 34.3287 204.233 35.118C204.381 35.9073 204.603 36.4993 204.899 36.894C205.195 37.264 205.565 37.5107 206.009 37.634C206.478 37.7573 207.033 37.819 207.674 37.819ZM220.447 42V22.131H224.961L225.923 24.166C226.663 23.5493 227.588 23.0067 228.698 22.538C229.832 22.0447 230.992 21.798 232.176 21.798C233.804 21.798 235.062 22.1187 235.95 22.76C236.838 23.4013 237.454 24.2647 237.8 25.35C238.17 26.4107 238.355 27.5947 238.355 28.902V42H232.879V29.605C232.879 28.9637 232.755 28.4333 232.509 28.014C232.287 27.5947 231.966 27.274 231.547 27.052C231.127 26.83 230.622 26.719 230.03 26.719C229.512 26.719 229.006 26.7807 228.513 26.904C228.044 27.0273 227.588 27.2 227.144 27.422C226.724 27.644 226.317 27.903 225.923 28.199V42H220.447Z" fill="#55BED2"/>
</svg>
